
<svg xmlns="http://www.w3.org/2000/svg" viewBox="0 0 598.31 172.66"><defs><style>.cls-1{fill:#666;}.cls-2{fill:#f60;}.cls-3{fill:#fff;}</style></defs><title>Varlık 2</title><g id="katman_2" data-name="katman 2"><g id="Layer_1" data-name="Layer 1"><g id="Layer0_0_FILL" data-name="Layer0 0 FILL"><path class="cls-1" d="M372.11,130.71h10.45l6.75-18.55h44.3l6.8,18.55h10.35L418,43.16H404.16l-32.05,87.55m58.6-26h-38.6l19.2-53.45,19.4,53.45m-63.85-21.6q0-23.4-6.65-31.7t-25.45-8.25H294.21v87.55h43.05q17.76,0,23.7-9.55t5.9-38M353.51,57.86q4,6.36,3.95,30.2,0,21.75-4.55,28.05t-20.3,6.25H304.06V51.51h30.55q15,0,18.9,6.35M272.46,68a13.51,13.51,0,0,1-4.95-.9v63.6h9.85V67.11a13.06,13.06,0,0,1-4.9.9m-22.15,22.7q5.55-5.49,5.55-20.5,0-15.64-5.35-21.35t-20.2-5.7h-40.1v87.55h9.85V96.21l29.15,0q15.45,0,21.1-5.45m-50.25-2.85V51.51l30.35.05q10.46,0,13.3,3.4T246.46,71q0,10.8-4.1,13.85t-18.85,3H200.06m251.75-44.7v9.15h28.55v78.4h9.85V52.31h28.3V43.16h-66.7m129.35,69,6.8,18.55h10.35L565.56,43.16H551.71l-32.05,87.55h10.45l6.75-18.55h44.3m-41.5-7.45,19.2-53.45,19.4,53.45h-38.6"/><path class="cls-2" d="M272.46,38.56a13.23,13.23,0,0,0-13.25,13.2,12.63,12.63,0,0,0,3.9,9.35,12.46,12.46,0,0,0,9.35,3.9,12.66,12.66,0,0,0,9.35-3.9,12.7,12.7,0,0,0,3.85-9.35,13.15,13.15,0,0,0-13.2-13.2"/></g><g id="Symbol_8_0_Layer1_0_FILL" data-name="Symbol 8 0 Layer1 0 FILL"><path class="cls-1" d="M153.17,31.71a11.08,11.08,0,0,1-2.82,5.17,12.59,12.59,0,0,1-8.23,3.29q16.45,19.56,16.45,46a68.94,68.94,0,0,1-7.75,32.66l.7.7A2,2,0,0,1,152,121v16q-.24,5.64-7.75,8.92h-.94c-5-.39-9.66-.94-14.1-1.64q-18.61,14.32-43,14.33-26.32,0-45.8-16.45a12.6,12.6,0,0,1-3.53,8.93,11.8,11.8,0,0,1-4.7,2.59q23.25,19,54,19,35.72,0,61.08-25.37t25.37-61.08q0-31.21-19.49-54.5M31.71,38.29q-6.09-.55-13.15-.94a1.88,1.88,0,0,1-1.41-.47,3.52,3.52,0,0,1-.94-1.41Q0,57.49,0,86.21T16.21,137A14.89,14.89,0,0,1,19,133.43a11.13,11.13,0,0,1,8.69-4h.47Q13.87,110.78,13.86,86.21q0-27.64,17.85-47.92M48.39,8.22A116.22,116.22,0,0,1,72.12,15a83.47,83.47,0,0,1,14.09-1.17q25.08,0,44.17,14.8h0a10.53,10.53,0,0,1,3.52-8,10.7,10.7,0,0,1,4.7-3.05Q116.09,0,86.21,0A86.79,86.79,0,0,0,48.39,8.22Z"/><path class="cls-3" d="M150.35,20.67a12.07,12.07,0,0,0-8.46-3.52,11.89,11.89,0,0,0-3.29.47,10.7,10.7,0,0,0-4.7,3.05,10.53,10.53,0,0,0-3.52,8h0A10.53,10.53,0,0,0,132,34.3a1.36,1.36,0,0,0-1.17.7q-4.47,5.4-6.34,7.52Q84.34,82,82.22,106.89v1.64a32.7,32.7,0,0,0,.94,8q5.67,21.64,46,27.72c4.44.7,9.13,1.25,14.1,1.64h.94q7.51-3.28,7.75-8.92V121a2,2,0,0,0-.47-1.41l-.7-.7a1.49,1.49,0,0,0-.71-.24h-.23q-39.47-2.58-44.17-16.44Q100.07,82,136.49,40.41a13.07,13.07,0,0,0,.7-1.18,11.4,11.4,0,0,0,4.7.94h.23a12.59,12.59,0,0,0,8.23-3.29,11.08,11.08,0,0,0,2.82-5.17,10.07,10.07,0,0,0,.47-3.05,10.91,10.91,0,0,0-3.29-8M72.12,15A116.22,116.22,0,0,0,48.39,8.22Q38.52,6.54,26.55,5.64h-.24c-.94,0-1.49.23-1.64.7Q16.43,9.4,16.21,16v19.5a3.52,3.52,0,0,0,.94,1.41,1.88,1.88,0,0,0,1.41.47q7.05.39,13.15.94,34.68,4.29,39.47,19.26,7,24-36.65,73.77v.23a11.69,11.69,0,0,0-6.34-2.11h-.47a11.13,11.13,0,0,0-8.69,4A14.89,14.89,0,0,0,16.21,137a14,14,0,0,0-.94,5.16A12.17,12.17,0,0,0,19,151.05a11.8,11.8,0,0,0,8.69,3.53,10.57,10.57,0,0,0,4.46-.94,11.8,11.8,0,0,0,4.7-2.59,12.6,12.6,0,0,0,3.53-8.93,14.75,14.75,0,0,0-.71-4.69,2.49,2.49,0,0,1,.71-.47v-.24A77.67,77.67,0,0,1,48.63,128Q95.61,80.81,98,52.15a19,19,0,0,0,.24-2.58,40.52,40.52,0,0,0-.94-9.16Q93,23.94,72.12,15Z"/></g><g id="Symbol_10_0_Layer0_0_FILL" data-name="Symbol 10 0 Layer0 0 FILL"><path class="cls-2" d="M35,134.84a10.21,10.21,0,0,0-14.56,0,10.38,10.38,0,0,0-2.82,7.28,9.57,9.57,0,0,0,2.82,7,10.19,10.19,0,0,0,14.56,0,9.19,9.19,0,0,0,3.06-7A10,10,0,0,0,35,134.84M151.29,28.66a9,9,0,0,0-2.82-6.58,9.68,9.68,0,0,0-13.16,0,9.44,9.44,0,0,0-2.58,6.58A8.61,8.61,0,0,0,135.31,35a9.09,9.09,0,0,0,13.16,0,8.25,8.25,0,0,0,2.82-6.34m-16.68,8.46a1.76,1.76,0,0,0-1.88-.71,79.28,79.28,0,0,1-6.81,7.52q-39.24,39-41.35,63v1.64a25.4,25.4,0,0,0,.94,7q6.57,23.73,57.79,28,6.1-2.34,6.34-6.81V121q-41.58-2.58-46.28-18.32-6.1-21.15,31.25-64.13.46-.48,0-1.41M95.85,49.57a38.26,38.26,0,0,0-.94-8.69Q87.16,12.68,26.08,8q-7.29,2.58-7.52,8V35q49.33,2.59,55,21.61Q81,82,36.41,132.73c-.31.47-.23,1.09.24,1.88a2,2,0,0,0,1.88.47q5.4-6.11,8.22-8.93Q93.27,79.88,95.61,51.68A10.65,10.65,0,0,0,95.85,49.57Z"/></g></g></g></svg>